<svg xmlns="http://www.w3.org/2000/svg" viewBox="0 0 588.79 85"><switch><g><path d="M40.46.68l25.5 58.06H51l-5.61-13.35h-24.9l-5.53 13.35H0L25.25.68h15.21zM24.31 36.04h17.26L32.9 14.96l-8.59 21.08zM110.93 38.42v2.38h-28.9c.93 5.87 5.87 9.78 12.07 9.78 5.35 0 10.71-1.62 15.81-4.34V55c-5.1 2.98-11.05 4.5-18.28 4.5-13.77 0-22.7-8.58-22.7-21.59 0-12.58 8.42-21.17 22.27-21.17 10.8.01 19.73 7.23 19.73 21.68zm-12.07-4.08c-.08-5.7-3.15-9.18-8.25-9.18-5.02 0-8.76 3.66-8.84 9.18h17.09zM133.11 16.75c4.76 0 9.69 1.19 13.69 3.32v9.61c-5.01-3.15-8.5-4.25-11.9-4.25-3.23 0-4.59 1.36-4.59 2.8 0 1.7.6 2.64 7.48 5.78 7.31 3.23 11.14 6.97 11.14 13.01 0 6.97-5.27 12.5-15.81 12.5-4.51 0-8.76-.68-15.22-3.4v-9.95c4.68 3.06 8.84 4.68 12.5 4.68 3.74 0 5.7-1.36 5.7-2.98 0-2.21-1.36-3.32-8.08-6.55-7.65-3.57-10.54-7.57-10.54-12.67-.01-6.29 5.77-11.9 15.63-11.9zM201.37 38.08c0 13.18-9.44 21.42-23.12 21.42-15.05 0-23.04-9.61-23.04-21.34 0-12.33 8.33-21.42 23.12-21.42 14.54.01 23.04 8.93 23.04 21.34zm-32.82 0c0 7.23 3.83 11.56 9.78 11.56 6.04 0 9.78-4.51 9.78-11.56 0-7.4-4.08-11.48-9.95-11.48-5.78.01-9.61 4.26-9.61 11.48zM232.3 59.5c-3.74 0-6.46-.51-10.29-2.8v21.51h-12.75v-60.7h18.45c13.18 0 24.48 3.57 24.48 20.91.01 10.71-6.54 21.08-19.89 21.08zm-10.28-12.24c2.29 1.7 5.19 2.38 7.48 2.38 5.53 0 9.44-4.42 9.44-10.8 0-7.57-4.33-11.56-11.05-11.56h-5.87v19.98zM275.23 11.56c0 7.57-5.53 15.05-16.66 16.92v-2.46c3.83-1.79 5.61-5.02 5.61-10.88-3.91-1.11-5.87-3.74-5.87-7.31 0-4.33 3.49-7.82 7.74-7.82 5.95-.01 9.18 5.6 9.18 11.55zM296.14 16.75c4.76 0 9.69 1.19 13.69 3.32v9.61c-5.01-3.15-8.5-4.25-11.9-4.25-3.23 0-4.59 1.36-4.59 2.8 0 1.7.6 2.64 7.48 5.78 7.31 3.23 11.14 6.97 11.14 13.01 0 6.97-5.27 12.5-15.81 12.5-4.51 0-8.76-.68-15.22-3.4v-9.95c4.68 3.06 8.84 4.68 12.5 4.68 3.74 0 5.7-1.36 5.7-2.98 0-2.21-1.36-3.32-8.08-6.55-7.65-3.57-10.54-7.57-10.54-12.67-.01-6.29 5.77-11.9 15.63-11.9zM384.28.76v10.37h-23.46V23.8h23.46v10.46h-23.46v24.48H346.2V.76h38.08zM425.25 29.75v17c0 1.96.34 3.49 1.87 3.49 1.02 0 2.13-.42 3.83-1.44v7.82c-4.42 2.04-7.65 2.89-11.22 2.89-3.66 0-5.78-1.36-6.63-4.33-3.66 3.15-7.65 4.33-12.16 4.33-7.48 0-11.73-4.25-11.73-10.37 0-8.5 7.57-11.22 23.29-16.32v-.94c0-4.84-2.55-6.29-6.71-6.29-5.44 0-10.88 2.63-15.3 7.4V22.36c4.93-3.91 11.05-5.61 17.68-5.61 11.13 0 17.08 5.01 17.08 13zM406.3 52.19c1.87 0 4-1.1 6.21-2.97V38.76c-6.54 2.72-10.71 4.5-10.71 8.76-.01 2.8 1.86 4.67 4.5 4.67zM456.79 59.5c-7.23 0-13.26-1.53-19.47-3.57V.76h12.75v19.3c2.97-2.3 7.06-3.32 11.05-3.32 13.18 0 19.04 10.8 19.04 21.42 0 15.14-10.2 21.34-23.37 21.34zm-6.72-10.71c1.87.68 4.59 1.02 6.54 1.02 4.42 0 10.29-2.21 10.29-11.56 0-7.23-3.74-11.82-9.1-11.82-2.29 0-5.1 1.02-7.74 3.06v19.3zM500.9.76v57.97h-12.75V.76h12.75zM550.8 38.42v2.38h-28.9c.93 5.87 5.87 9.78 12.07 9.78 5.35 0 10.71-1.62 15.81-4.34V55c-5.1 2.98-11.05 4.5-18.28 4.5-13.77 0-22.7-8.58-22.7-21.59 0-12.58 8.42-21.17 22.27-21.17 10.8.01 19.73 7.23 19.73 21.68zm-12.08-4.08c-.08-5.7-3.15-9.18-8.25-9.18-5.02 0-8.76 3.66-8.84 9.18h17.09zM572.98 16.75c4.76 0 9.69 1.19 13.69 3.32v9.61c-5.01-3.15-8.5-4.25-11.9-4.25-3.23 0-4.59 1.36-4.59 2.8 0 1.7.6 2.64 7.48 5.78 7.31 3.23 11.14 6.97 11.14 13.01 0 6.97-5.27 12.5-15.81 12.5-4.51 0-8.76-.68-15.22-3.4v-9.95c4.68 3.06 8.84 4.68 12.5 4.68 3.74 0 5.7-1.36 5.7-2.98 0-2.21-1.36-3.32-8.08-6.55-7.65-3.57-10.54-7.57-10.54-12.67-.01-6.29 5.77-11.9 15.63-11.9zM618.55-150.67h26.16v77.53h-26.16z"/></g></switch></svg>